<svg xmlns="http://www.w3.org/2000/svg" width="530" height="195" viewBox="0 0 530 195">
  <g id="Group_1164" data-name="Group 1164" transform="translate(-987 -4181)">
    <g id="Ellipse_24" data-name="Ellipse 24" transform="translate(1267 4183)" fill="#fff" stroke="#20d3c2" stroke-width="2" stroke-dasharray="4 2">
      <circle cx="54.5" cy="54.5" r="54.5" stroke="none"/>
      <circle cx="54.5" cy="54.5" r="55.5" fill="none"/>
    </g>
    <g id="Ellipse_22" data-name="Ellipse 22" transform="translate(989 4183)" fill="#fff" stroke="#20d3c2" stroke-width="2" stroke-dasharray="4 2">
      <ellipse cx="54.5" cy="54" rx="54.5" ry="54" stroke="none"/>
      <ellipse cx="54.5" cy="54" rx="55.5" ry="55" fill="none"/>
    </g>
    <g id="Ellipse_23" data-name="Ellipse 23" transform="translate(1128 4183)" fill="#fff" stroke="#20d3c2" stroke-width="2" stroke-dasharray="4 2">
      <circle cx="54.5" cy="54.5" r="54.5" stroke="none"/>
      <circle cx="54.5" cy="54.5" r="55.5" fill="none"/>
    </g>
    <g id="Ellipse_25" data-name="Ellipse 25" transform="translate(1406 4183)" fill="#fff" stroke="#20d3c2" stroke-width="2" stroke-dasharray="4 2">
      <circle cx="54.5" cy="54.5" r="54.5" stroke="none"/>
      <circle cx="54.5" cy="54.5" r="55.5" fill="none"/>
    </g>
    <text id="_7" data-name="7" transform="translate(1044 4241)" fill="#20d3c2" font-size="36" font-family="SegoeUI-Bold, Segoe UI" font-weight="700"><tspan x="-10.354" y="0">7</tspan></text>
    <text id="_23" data-name="23" transform="translate(1183 4241)" fill="#20d3c2" font-size="36" font-family="SegoeUI-Bold, Segoe UI" font-weight="700"><tspan x="-20.707" y="0">23</tspan></text>
    <text id="_46" data-name="46" transform="translate(1322 4241)" fill="#20d3c2" font-size="36" font-family="SegoeUI-Bold, Segoe UI" font-weight="700"><tspan x="-20.707" y="0">46</tspan></text>
    <text id="_12" data-name="12" transform="translate(1461 4241)" fill="#20d3c2" font-size="36" font-family="SegoeUI-Bold, Segoe UI" font-weight="700"><tspan x="-20.707" y="0">12</tspan></text>
    <text id="Days" transform="translate(1044 4264)" fill="#0e153d" font-size="16" font-family="Roboto-Regular, Roboto"><tspan x="-17.508" y="0">Days</tspan></text>
    <text id="Hours" transform="translate(1183 4263)" fill="#0e153d" font-size="16" font-family="Roboto-Regular, Roboto"><tspan x="-21.508" y="0">Hours</tspan></text>
    <text id="Minutes" transform="translate(1322 4263)" fill="#0e153d" font-size="16" font-family="Roboto-Regular, Roboto"><tspan x="-28.727" y="0">Minutes</tspan></text>
    <text id="Seconds" transform="translate(1461 4263)" fill="#0e153d" font-size="16" font-family="Roboto-Regular, Roboto"><tspan x="-30.785" y="0">Seconds</tspan></text>
    <rect id="Rectangle_288" data-name="Rectangle 288" width="154" height="54" rx="27" transform="translate(1176 4322)" fill="#fff"/>
    <text id="SHOP_NOW" data-name="SHOP NOW" transform="translate(1253 4356)" fill="#20d3c2" font-size="18" font-family="Roboto-Medium, Roboto" font-weight="500"><tspan x="-46.556" y="0">SHOP NOW</tspan></text>
  </g>
</svg>
