<svg xmlns="http://www.w3.org/2000/svg" width="255" height="257.918" viewBox="0 0 255 257.918">
  <g id="Group_1159" data-name="Group 1159" transform="translate(-1260 -7854.082)">
    <rect id="Instagram-2" width="79" height="78" rx="6" transform="translate(1348 7858)" fill="#ccc"/>
    <rect id="Instagram-9" width="78" height="78" rx="6" transform="translate(1260 8034)" fill="#ccc"/>
    <rect id="Instagram-3" width="78" height="78" rx="6" transform="translate(1437 7858)" fill="#ccc"/>
    <rect id="Overlay" width="79" height="78" rx="6" transform="translate(1348 7946)" fill="#20d3c2" opacity="0.85"/>
    <rect id="Instagram-10" width="79" height="78" rx="6" transform="translate(1348 8034)" fill="#ccc"/>
    <path id="Instagram-1" d="M6,0H72c3.314,0,4.5-12,6,6s0,66,0,66a6,6,0,0,1-6,6H6a6,6,0,0,1-6-6V6A6,6,0,0,1,6,0Z" transform="translate(1260 7858)" fill="#ccc"/>
    <rect id="Instagram-5" width="78" height="78" rx="6" transform="translate(1260 7946)" fill="#ccc"/>
    <rect id="Instagram-7" width="78" height="78" rx="6" transform="translate(1437 7946)" fill="#ccc"/>
    <rect id="Instagram-11" width="78" height="78" rx="6" transform="translate(1437 8034)" fill="#ccc"/>
  </g>
</svg>
